# xmcd CD database file
#
# Track frame offsets:
#	187
#	21189
#	43259
#	63797
#	89227
#	112049
#	135392
#	155189
#	175234
#	198197
#	218577
#
# Disc length: 3231 seconds
#
# Revision: 0
# Processed by: cddbd v1.5PL3 Copyright (c) Steve Scherf et al.
# Submitted via: CDex 1.50beta9
#
DISCID=9c0c9d0b
DTITLE=中江有里 - メモワール
DYEAR=1900
DGENRE=Pop
TTITLE0=突然すぎて
TTITLE1=やさしい贈り物
TTITLE2=ままならぬ思い
TTITLE3=夢のゆくえ
TTITLE4=想い出のキャトルセゾン
TTITLE5=花をください
TTITLE6=悲しい顔
TTITLE7=DON'T YOU WORRY
TTITLE8=あなたは知らない
TTITLE9=理由を聞かせて
TTITLE10=ひとりごとなら
EXTD=
EXTT0=
EXTT1=
EXTT2=
EXTT3=
EXTT4=
EXTT5=
EXTT6=
EXTT7=
EXTT8=
EXTT9=
EXTT10=
PLAYORDER=
